<?xml version="1.0" standalone="yes"?>
<svg xmlns="http://www.w3.org/2000/svg" width="1280" height="1280">
<path style="fill:#f7a424; stroke:none;" d="M0 0L0 399L0 492C0 501.499 -3.69849 519.16 8 523C8.7057 532.604 19.2159 535.294 21 544L26 544C28.0049 556.967 44.358 564.034 48 576C54.353 578.947 54.9209 585.192 59.6335 589.682C62.3145 592.237 66.7852 591.454 68.9907 594.434C72.8178 599.604 72.259 606.699 80 608C80.1912 613.872 82.7726 614.219 86.162 618.28C92.0354 625.317 98.723 637.384 108 640C108.138 642.521 108.142 645.348 110.434 646.977C113.028 648.821 116.311 648.228 118.358 651.148C120.001 653.491 119.125 656.266 119.968 658.826C121.763 664.28 128.301 671.558 134 672C134.777 678.335 139.528 682.804 140 689C147.875 693.5 151.006 702.97 156.361 709.834C161.356 716.236 167.58 722.299 173.173 728.15C178.233 733.445 184.09 738.494 186 746C194.719 750.488 198.768 759.394 204.866 766.583C212.466 775.544 221.874 783.775 226 795C230.645 796.34 232.364 801.311 235.159 804.961C237.544 808.075 240.833 810.249 243.237 813.3C245.681 816.402 246.656 820.349 248.883 823.572C250.941 826.548 253.514 828.651 255 832L261 832C261.348 842.719 270.906 848.34 276.708 856.093C278.478 858.459 278.272 861.241 279.679 863.696C281.222 866.387 284.227 867.898 286.18 870.256C290.464 875.429 293.422 883.317 299 887L298 889C303.125 892.601 305.736 897.157 309.785 901.745C312.172 904.449 315.397 906.205 317.701 909.019C319.919 911.726 321.099 915.096 323.197 917.892C326.299 922.027 331.098 922.472 332 928C336.453 929.348 336.945 932.967 340.133 935.961C343.85 939.45 345.713 943.517 348.866 947.42C351.567 950.764 355.448 952.96 358.121 956.235C361.227 960.04 363.201 964.667 366.12 968.53C367.547 970.418 369.742 971.504 371.239 973.339C373.254 975.808 374.344 978.951 376.156 981.576C379.233 986.034 383.176 989.356 386.58 993.454C389.974 997.54 392.291 1002.56 395.824 1006.64C397.76 1008.87 400.471 1010.2 402.401 1012.43C405.953 1016.53 408.18 1021.71 411.839 1025.79C414.483 1028.74 418.057 1030.48 420.83 1033.26C426.276 1038.72 430.659 1045.53 435.811 1051.29C438.395 1054.18 438.607 1057.83 440.738 1060.9C444.006 1065.6 449.568 1068.93 453.204 1073.41C456.768 1077.81 457.842 1081.17 464 1082C461.218 1087.92 464.886 1093.66 468.935 1098.17C476.823 1106.94 485.53 1114.04 492.819 1123.33C496.368 1127.86 499.282 1134.15 505 1136C505.335 1142.11 509.316 1143.15 511.398 1148.13C512.283 1150.25 511.941 1152.61 512.974 1154.71C516.316 1161.51 523.184 1166.05 527.617 1172.01C531.795 1177.64 537.099 1185.74 544 1188C544.32 1197.77 556.081 1206.42 562.812 1212.46C569.207 1218.2 572.621 1226.71 577.387 1233.57C580.826 1238.53 585.567 1241.68 586 1248L592 1248C592.714 1256.65 599.557 1267.1 608 1270C608.208 1273.82 609.587 1276.52 611 1280L1280 1280L1280 934L1280 818L1280 783C1280 778.098 1281.08 771.668 1279.4 767.001C1278.1 763.368 1274.88 761.339 1272.47 758.546C1269.01 754.538 1264.15 748.769 1262 744L1258 744C1255.51 734.068 1244.32 732.464 1240 724C1241.48 724.986 1241.2 725 1243 725C1238.71 719.366 1233.56 712.796 1226 714C1225.36 717.993 1223.99 719.364 1220 720C1220.34 715.067 1224.39 711.869 1224.56 707.075C1224.65 704.495 1223.08 702.239 1222 700C1219.91 700.406 1219.98 700.217 1219 702C1217.81 700.964 1217.4 700.661 1216 700L1216 704L1200 704L1200 684L1204 684C1203.43 679.527 1201.07 676.237 1200 672C1193.64 670.698 1188.83 664.308 1188 658C1189.4 660.05 1190.25 661.646 1191 664C1193.35 664 1194.42 665.721 1197 666C1192.45 656.671 1182.51 649.52 1176.42 641C1173.95 637.548 1172.45 632.907 1168 632C1167.23 627.454 1163.37 624.363 1160.83 620.573C1152.95 608.778 1142.76 599.827 1134.26 588.711C1127.06 579.302 1120.37 569.454 1113.03 560.171C1110.29 556.708 1106.41 554.409 1103.68 550.95C1099.35 545.464 1096.02 539.153 1091.76 533.665C1088.78 529.83 1084.9 526.972 1081.87 523.299C1080.08 521.124 1079.35 518.346 1077.56 516.134C1071.12 508.171 1063.61 500.995 1057.55 492.728C1052.32 485.605 1047.64 478.025 1041 472C1037.55 472.664 1035.11 470.385 1032 469C1032.46 463.697 1028.41 461.942 1024 460C1020.9 465.619 1013.65 464 1008 464L1008 444L1011 445C1013.06 438.034 1010.14 430.572 1002 431C999.021 422.596 991.215 416.278 988 408L984 408C983.805 405.072 982.981 402.744 982 400L978 401L976 394C967.716 393.433 964.912 386.479 964 379C960.873 379.934 959.934 380.873 959 384L944 384L944 364L948 364L948 358L949 360C950.013 355.661 944.159 350.552 941.617 347.128C934.942 338.135 927.849 329.564 921.353 320.553C919.598 318.119 917.385 316.726 916 314L912 314C910.258 303.005 896.736 296.658 894 286C889.038 283.326 884.505 277.414 883 272C875.671 268.095 871.478 258.596 866.18 252.37C859.676 244.728 852.038 237.771 845.876 229.83C842.014 224.855 839.488 219.049 835.441 214.17C832.253 210.325 828.071 207.572 824.87 203.727C818.995 196.67 815.763 183.774 806 181C805.544 174.223 801.057 171.677 796.885 166.935C791.756 161.106 787.558 154.666 782.76 148.64C773.959 137.584 765.249 126.095 756.312 115.129C754.505 112.911 751.786 111.871 749.954 109.701C736.316 93.543 725.299 74.3533 710.065 59.625C703.341 53.1241 699.083 43.9062 692.754 36.8966C690.245 34.1177 688.604 31.2175 685 30C683.999 23.1315 677.595 19.759 673.57 14.6898C669.699 9.81458 666.71 1.85754 659.829 0.278564C655.221 -0.779053 649.71 0 645 0L616 0L523 0L0 0z"/>
<path style="fill:#ee8711; stroke:none;" d="M662 0C664.112 3.82397 667.615 6.29675 670.204 9.75928C671.766 11.8483 672.461 14.3242 674.274 16.2554C678.251 20.4932 683.498 24.1639 685 30C695.864 36.099 700.512 49.8136 708.41 58.7909C722.778 75.121 735.746 92.6443 749.323 109.701C751.312 112.2 754.321 113.471 756.312 116.019C762.506 123.943 767.734 133.167 774.714 140.481C782.662 148.809 788.609 158.244 796.133 166.935C800.257 171.699 805.123 174.304 806 181C813.28 184.355 816.668 192.571 821.934 198.255C837.706 215.276 850.028 235.027 865.486 252.37C870.763 258.291 875.207 269.45 883 272C883.867 277.642 888.46 284.203 894 286C895.591 296.931 909.041 303.492 912 314L916 314C917.033 317.321 919.47 318.539 921.353 321.339C927.783 330.903 935.698 339.395 942.255 349C945.291 353.448 949.69 360.505 955 362C956.61 372.402 967.631 377.087 970 387C974.894 389.256 979.377 394.156 982.628 398.449C985.006 401.59 986.071 404.708 990 406C990.364 411.192 993.313 413.388 996.449 417.232C1002.12 424.181 1009.33 430.058 1014.2 437.572C1016.98 441.853 1019.07 446.474 1022.37 450.461C1028.51 457.869 1036.43 464.054 1042.54 471.458C1048.11 478.206 1052.36 486.557 1057.55 493.576C1065.09 503.79 1073.86 513.103 1081.3 523.299C1085.03 528.418 1091.75 531.674 1095 537L1097 536C1097.6 539.175 1098.92 541.964 1100 545C1102.86 544.898 1102.62 546.657 1104.5 548.5C1109.33 553.227 1112.5 560.007 1116.17 566C1119.36 571.218 1123.46 574.75 1127.5 579.167C1131.28 583.302 1133.84 589.137 1137.33 593.667C1139.81 596.873 1142.92 598.474 1145.67 601.167C1149.39 604.827 1152.19 609.503 1155.33 613.667C1158.14 617.391 1160.33 622.228 1163.33 625.667C1165.61 628.28 1167.59 628.231 1168 632C1178.28 637.484 1182.46 649.102 1189.86 657.541C1193.06 661.181 1195.09 664.765 1200 666C1202.15 681.144 1221.1 687.3 1224 702C1226.93 703.647 1228.31 706.078 1230.52 708.576C1235.6 714.31 1243.02 720.404 1245 728L1248 728C1249.05 734.621 1255.58 737.924 1258 744L1262 744C1263.03 747.69 1265.63 749.488 1267.89 752.465C1271.77 757.582 1274.66 762.128 1280 766L1280 0L662 0z"/>
<path style="fill:#f09419; stroke:none;" d="M820 197C822.149 202.412 826.594 207.683 832 210C830.057 204.356 825.182 199.831 820 197z"/>
<path style="fill:#f0961c; stroke:none;" d="M840 221C843.222 227.493 847.439 234.516 854 238C851.647 232.638 845.488 223.093 840 221z"/>
<path style="fill:#f8a324; stroke:none;" d="M948 358L948 364L944 364L944 384L959 384C960.324 381.314 961.314 380.324 964 379C964.503 386.913 967.362 393.738 976 394C976.334 396.513 977.146 398.62 978 401L982 400L984 408L988 408C989.983 416.316 997.954 423.484 1002 431C1009.79 431.062 1012.6 438.202 1011 445C1009.52 444.014 1009.8 444 1008 444L1008 464C1013.26 464 1022 466.023 1024 460C1027.95 462.494 1031.51 464.02 1032 469C1035.1 471.082 1037.4 473.798 1041 472C1042.1 473.457 1042.54 473.897 1044 475C1042.95 468.537 1034.52 462.501 1030.15 457.694C1025.63 452.712 1020.93 448.279 1017.28 442.551C1014.67 438.458 1013.01 434.17 1009.52 430.598C1003.29 424.223 991.281 415.171 990 406C981.923 401.677 979.649 389.742 970 387C968.649 376.965 957.663 371.849 955 362C952.417 360.981 950.296 359.558 948 358z"/>
<path style="fill:#fec921; stroke:none;" d="M620 590L620 592C628.388 591.634 633.706 587.328 641.286 584.725C645.401 583.312 649.985 583.52 653.961 581.571C657.773 579.701 659.612 576.691 664 576L664 480C667.644 480 672.096 481.217 673 477C670.391 477.351 665.905 479.202 663.473 477.799C661.187 476.48 661.756 473.176 662.954 471.326C664.718 468.6 672.016 462.517 675.129 461.518C678.243 460.518 682.009 463.251 685 464C684.661 462.738 684.48 461.316 683.683 460.219C676.442 450.249 666.644 462.171 661.451 467.559C659.425 469.661 657.095 471.014 656.318 474.018C654.384 481.499 656 491.285 656 499L656 550L656 569C655.994 571.874 656.322 575.132 654.397 577.517C650.515 582.325 643.596 581.097 638.286 582.455C631.858 584.1 626.426 588.505 620 590z"/>
<path style="fill:#ffcb20; stroke:none;" d="M673 477C670.827 480.352 667.769 479.987 664 480L664 576C658.532 576.421 656.003 580.655 650.999 582.316C647.553 583.459 643.837 583.536 640.424 584.725C636.073 586.242 632.422 589.188 628 590.556C623.873 591.834 619.255 591.147 615.286 592.56C611.367 593.955 607.697 597.614 604.42 600.12C599.353 603.994 593.372 608.251 588.934 612.786C585.343 616.456 584.374 620.608 579 622L579 619C572.353 618.518 567.753 613.491 561.999 610.539C554.06 606.466 544.993 604.54 537.003 600.278C533.217 598.258 530.634 594.133 526.701 592.559C518.19 589.154 507.099 592 498 592L498 590C503.135 589.999 509.084 590.767 511 585C504.334 584.258 501.453 579.084 495.741 576.724C491.195 574.845 484.905 575.911 480 575C479.888 578.866 478.77 582.252 478 586L474 586C473.663 590.703 469.836 591.079 469 595C471.57 595 471.158 596.824 473 598.667C475.177 600.843 477.083 601 480 601L480 608C489.514 608.105 494.796 615.897 504 616C504.482 618.364 504.636 618.518 507 619L506 623L512 624C513.384 628.182 517.223 629.155 520.299 631.988C528.532 639.568 537.563 644.369 547.129 650.147C550.8 652.364 555.565 653.013 558.397 656.519C561.699 660.607 560.465 671.198 559.296 676C556.223 688.615 555.229 703.983 557.213 717C558.321 724.267 563.196 734.518 558.972 741.811C555.598 747.636 544.95 750.239 539.615 754.05C523.579 765.506 505.047 773.88 488.335 784.475C483.127 787.777 474.52 789.923 470.988 795.263C469.226 797.928 468.98 801.923 468.424 805C467.4 810.68 465.837 816.31 465 822C473.565 823.091 483.355 829.784 491.961 828.736C495.961 828.249 499.42 825.042 503.001 823.387C507.273 821.413 511.112 821.161 512 816C524.825 814.291 535.161 803.61 546.039 797.721C550.654 795.223 558.094 794.318 560 789C567.406 787.891 582.47 770.501 586 784C593.392 787.458 597.919 795.246 605.286 799.042C611.262 802.121 620.805 802.429 624 809C630.44 808.999 638.698 806.797 640 815L664 816C664 845.582 665.204 875.445 663.981 904.999C663.835 908.511 662.051 910.888 661.299 914.17C660.307 918.496 661 923.577 661 928C662.949 928.936 663.55 929.392 665 931L668 931C671.393 927.172 675.33 926.517 677 932L670 932L672 939C682.322 938.751 687.214 928.955 696 925C694.9 899.372 695 873.703 695 848C695 843.076 695.464 837.875 694.675 833C694.056 829.173 691.829 824.792 694.604 821.279C697.935 817.062 705.266 817.71 710 816.406C720.303 813.568 728.852 810.084 737.845 804.161C745.723 798.971 754.287 793.941 761.026 787.219C763.994 784.258 767.057 778.914 772 779.551C774.918 779.927 777.518 782.381 780.039 783.742C785.969 786.94 791.556 790.015 797.196 793.686C812.855 803.877 829.83 813.915 846.96 821.257C851.313 823.123 854.646 827.253 859.286 828.489C863.012 829.482 866.566 827.341 870 826.205C875.791 824.29 881.959 822.813 888 822C886.417 815.263 884.41 808.693 882.604 802C881.56 798.131 881.346 794.951 877.981 792.283C874.792 789.755 870.591 788.819 867.089 786.786C861.192 783.36 855.848 778.533 849.829 775.451C844.832 772.893 836.813 771.741 835 766C829.112 764.585 824.846 761.176 819.715 758.18C814.085 754.892 808.015 752.339 802.665 748.561C799.972 746.659 795.014 744.406 793.447 741.446C791.885 738.495 794.443 733.903 795.29 731C797.488 723.464 798 716.816 798 709C798 699.428 799.481 688.428 797.157 679.089C795.663 673.089 790.529 664.527 792.693 658.184C794.17 653.857 800.484 651.871 804 649.609C811.829 644.57 819.786 640.361 827.961 636.157C832.323 633.913 834.93 630.664 840 630C842.259 626.292 846.13 625.823 849.714 623.664C852.642 621.9 855.024 619.407 858.001 617.681C862.737 614.934 867.921 613.136 872.339 609.805C880.033 604.004 882.128 596.9 884.442 588C885.129 585.36 887.502 582.088 887.188 579.344C886.743 575.467 877.563 574.952 874.576 573.576C870.383 571.644 864.663 569.76 860 570.368C851.826 571.434 843.677 579.168 837.041 583.532C832.599 586.452 825.908 586.497 824 592C818.327 592.713 814.859 596.138 809.996 598.777C801.703 603.278 793.5 607.494 785.286 612.208C781.2 614.552 775.099 620.364 770.05 619.574C767.183 619.126 765.769 616.423 763.911 614.524C760.632 611.174 756.561 605.641 752.78 603.16C747.909 599.963 742.156 597.669 737.089 594.688C724.405 587.226 711.171 580.052 696 580C693.96 554.159 695 527.949 695 502C695 494.196 696.203 485.697 695.567 478C694.977 470.856 689.034 467.524 683.714 463.997C681.3 462.397 678.216 460.099 675.129 460.931C671.952 461.786 663.999 468.445 662.438 471.326C661.333 473.363 660.763 477.201 663.438 478.306C666.098 479.406 670.322 477.552 673 477z"/>
<path style="fill:#fab321; stroke:none;" d="M655 472C651.89 482.522 654 496.045 654 507L654 578L656 578L656 504L656 483C656 479.297 656.441 475.435 655 472z"/>
<path style="fill:#fdbe23; stroke:none;" d="M694 472C695.988 482.088 695 492.681 695 503C695 528.347 692.823 554.858 696 580L703 580C701.044 578.68 700.392 578.701 698 579C695.876 570.077 697 560.134 697 551L697 500C697 493.668 697.074 487.331 696.996 481C696.952 477.415 696.959 474.253 694 472z"/>
<path style="fill:#f7a326; stroke:none;" d="M644 480L644 548C644 557.137 646.292 569.167 641 577C635.06 574.583 633.182 578.031 627.83 579.346C622.204 580.73 615.262 577.778 612 584C613.767 584.955 614.607 585.566 616 587C619.873 584.459 622.828 585.345 627 584.188C630.48 583.224 633.413 581.074 637 580.211C640.061 579.476 644.927 579.025 646.972 576.298C648.583 574.15 647.999 570.508 648 568L648 550L648 480L644 480z"/>
<path style="fill:#fdb803; stroke:none;" d="M0 517C4.5768 533.621 25.8323 541.47 26 560C34.5574 560.101 41.1282 567.549 42 576C47.4566 576.867 48.4435 580.721 51.713 584.625C53.0991 586.28 55.4528 587.687 55.7137 590.015C55.9858 592.441 54.1898 595.449 54 598L48 598L48 608L58 608L58 602C60.9715 601.81 63.2599 601.166 66 600C67.7322 610.898 78.8435 614.505 83 624C79.5972 624.729 80.0135 626.806 80 630C86.5578 628.093 89.7026 634.346 91 640C101.954 640.357 107.366 653.238 113.281 660.876C114.985 663.076 120.902 667.231 119.576 670.575C118.528 673.219 116.472 669.805 116 669L111 669C111.807 675.385 112 681.561 112 688C119.636 688 127.682 686.241 128 696C130.694 693.301 131.611 690.776 132 687C136.116 689.375 139.194 693.729 142.571 697.12C143.9 698.455 145.716 700.068 145.867 702.08C146.017 704.085 144.432 706.096 144.144 708.089C143.585 711.947 144 716.106 144 720L148 720C147.308 715.916 146.098 712.186 146 708C154.34 710.172 158.844 716.985 163.261 723.855C165.603 727.497 167.692 729.513 168 734C173.31 734.174 179.064 737.468 178.186 743.816C177.81 746.53 175.409 748.219 175.303 751.093C175.101 756.61 176 762.414 176 768C180.042 768 188.368 766.416 190.972 770.318C192.682 772.879 192 777.076 192 780C196.738 776.39 192.417 770.016 199 768C200.457 774.127 206.248 777.452 204 784C206.46 783.163 207.962 781.622 210 780C208.816 776.911 208.097 774.33 208 771C200.869 768.979 199.866 759.252 192 758C191.571 752.47 187.874 752.013 185.125 747.812C180.584 740.872 177.923 735.06 171.661 729.155C161.917 719.966 157.2 707.686 149.191 697.258C143.378 689.691 135.905 683.331 129.897 675.795C126.64 671.711 122.797 668.214 119.669 664C117.228 660.711 116.031 657.301 112 656C110.924 647.943 104.448 644.198 99.4429 638.545C96.5655 635.295 94.6714 631.269 91.8434 627.92C88.9426 624.485 85.6447 621.613 85 617C81.9512 614.896 78.101 613.323 75.4823 610.701C69.2134 604.425 64.3627 595.009 58.8534 587.946C55.2395 583.313 54.1617 577.756 48 576C47.3801 572.317 45.2591 570.739 43.027 567.87C37.4756 560.733 28.4688 552.795 26 544L21 544C19.9909 535.149 9.33998 532.16 8 523C4.98179 521.389 3.03138 518.631 0 517z"/>
<path style="fill:#fdb801; stroke:none;" d="M0 520L0 1280L611 1280C610.101 1276.52 608.396 1273.64 608 1270C600.154 1265.59 593.245 1257.03 592 1248L586 1248C585.693 1237.9 573.932 1230 567.556 1223C564.698 1219.86 564.499 1216.98 560 1216C559.619 1204.26 544.837 1199.08 544 1188C536.335 1183.92 531.862 1175.77 526.294 1169.45C521.346 1163.84 515.258 1158.86 512 1152L508 1152C506.558 1147.49 500.523 1141.41 496 1140C495.962 1129.22 487.637 1121.86 481.541 1113.74C479.036 1110.41 477.392 1106.78 474.583 1103.56C470.299 1098.66 465.206 1094.64 464 1088C458.378 1084.97 454.82 1079.43 448 1078C447.449 1070.84 439.157 1064.98 435.04 1059.17C430.09 1052.19 426.398 1044.22 421.014 1037.46C413.359 1027.83 404.159 1021.19 400 1009C392.453 1008.86 388.688 999.629 384.701 994.298C383.084 992.136 380.599 990.967 378.9 988.857C371.204 979.296 364.328 968.544 357.276 958.475C353.678 953.336 348.507 950.729 348 944L341 944C339.046 934.693 329.735 926.547 324.455 918.83C318.032 909.443 311.244 900.687 303.275 892.478C300.714 889.841 297.105 888.429 294.723 885.636C283.712 872.726 274.462 856.405 260 847C259.429 850.208 258.228 852.989 257 856C256.42 854.12 256.246 851.155 254.975 849.602C252.355 846.401 243.729 848 240 848C240 841.592 240.174 835.322 239 829L243 829C243.91 831.739 249.674 834.69 249.093 829.942C248.67 826.482 244.093 824.535 242.133 822.025C238.151 816.927 240.776 812.332 234 809C233.823 805.198 231.52 803.853 228.997 801.157C224.174 796.003 217.025 791.378 216 784C209.912 780.821 210.034 780.706 204 784C207.269 777.537 201.264 773.846 199 768C192.264 769.125 195.739 775.642 192 780C192 777.073 192.911 772.051 190.972 769.603C188.429 766.393 179.674 768 176 768C176 762.507 175.08 756.509 175.563 751.093C175.791 748.546 177.819 747.045 178.4 744.675C180.155 737.527 173.86 734.07 168 734C167.697 724.008 155.982 709.592 146 708C146.038 712.265 146.916 715.903 148 720L144 720C144 716.161 143.462 711.852 144.299 708.089C144.747 706.074 146.466 704.183 146.387 702.08C146.218 697.572 135.942 688.492 132 687C131.429 690.208 130.228 692.989 129 696C128.42 694.12 128.246 691.155 126.975 689.602C124.355 686.401 115.729 688 112 688C112 681.592 112.174 675.322 111 669L116 669C116.478 670.438 119.14 674.419 120.177 670.702C121.194 667.06 115.859 663.305 113.955 660.876C107.706 652.901 102.45 640.136 91 640C90.2297 634.116 86.7504 626.754 80 630C80.2206 626.994 80.4547 625.635 83 624C80.2885 613.952 68.766 610.593 66 600C63.3047 600.845 60.8061 601.657 58 602L58 608L48 608L48 598L54 598C54.382 595.432 56.4602 592.531 56.2677 590.015C56.0868 587.649 53.8364 586.258 52.4159 584.625C48.834 580.507 47.9821 576.464 42 576C41.5213 566.799 35.0787 560.032 26 560C25.9631 547.141 16.8372 540.086 9.15818 530.985C6.03966 527.289 4.38435 522.236 0 520z"/>
<path style="fill:#ee9118; stroke:none;" d="M1093 534C1094.95 542.773 1103.81 554.345 1112 558C1109.23 553.618 1105.65 545.665 1100 545L1097 536L1095 537C1094.59 534.908 1094.78 534.98 1093 534z"/>
<path style="fill:#ffc921; stroke:none;" d="M492 616C493.509 620.986 497.588 621.398 501.961 623.395C508.984 626.604 515.23 632.962 523 634C519.612 630.232 514.42 628.491 512 624L506 623L507 619C504.876 618.101 504.899 618.124 504 616C497.812 615.815 495.263 612.184 489.999 609.604C486.78 608.027 483.499 608.012 480 608L480 601C475.045 600.476 473.087 595.549 469 595C471.114 591.503 473.653 590.458 474 586L478 586C479.174 582.238 479.956 578.959 480 575C484.768 576.135 490.36 574.968 494.871 576.724C501.055 579.131 503.671 584.599 511 585C508.198 590.182 503.344 589.996 498 590L498 592C506.534 592 517.797 589.452 525.83 592.559C529.139 593.839 531.223 597.117 534.09 599.095C536.802 600.965 539.806 601.462 542.714 602.824C547.508 605.069 550.47 607.712 556 608C552.518 604.505 548.1 602.944 544.018 600.29C539.202 597.159 535.774 593.413 530 592L531 590C523.447 588.378 518.188 584.145 511.486 580.823C508.235 579.212 505.94 579.323 504 576C499.674 574.925 496.359 571.437 492 570.552C489.52 570.049 487.375 571.038 485 571.545C479.611 572.695 469.585 572.415 465.619 576.768C462.884 579.768 466.376 583.794 466.882 587.039C467.814 593.018 468.442 599.566 472.125 604.675C475.924 609.944 485.612 615.136 492 616z"/>
<path style="fill:#f9b013; stroke:none;" d="M64 592C65.0781 598.773 72.9643 611.865 80 613L80 608C71.1954 605.309 72.8106 593.014 64 592z"/>
<path style="fill:#f5ad1e; stroke:none;" d="M539 595C540.66 600.041 545.463 601.553 549.829 603.942C558.573 608.727 568.864 618.676 579 619L579 622C582.998 621.418 584.884 619.901 586 616C584.216 616.98 584.406 616.908 584 619L576 618C575.374 609.969 564.428 608.464 558 606L559 604C552.87 600.464 545.978 596.405 539 595z"/>
<path style="fill:#f7a51b; stroke:none;" d="M84 616C85.4171 622.489 90.0424 626.202 93.9352 631.286C95.916 633.874 97.2101 636.893 99.4429 639.289C104.358 644.564 110.256 648.642 112 656C116.074 658.184 117.639 662.405 120.429 665.995C125.816 672.928 135.41 679.396 138 688L140 688C139.548 682.207 135.205 677.771 134 672C128.586 671.143 122.423 663.963 120.448 658.826C119.377 656.043 120.433 652.773 118.394 650.318C114.279 645.365 108.916 648.198 108 640C100.714 636.667 94.4524 628.406 89.3804 622.287C87.416 619.917 86.6715 617.624 84 616z"/>
<path style="fill:#f5aa1e; stroke:none;" d="M621 640C627.789 639.383 631.316 634.915 637.015 631.799C639.849 630.249 643.115 630.441 645.911 628.978C648.514 627.615 650.11 625.14 653.039 624.303C663.705 621.256 676.963 620.066 688 621.171C693.441 621.715 698.523 623.75 704 624L704 622C697.902 621.178 692.14 618.785 686 618.171C668.456 616.415 651.164 619.706 636 628.46C630.826 631.447 624.393 635.013 621 640z"/>
<path style="fill:#f7a424; stroke:none;" d="M603 720C601.307 723.386 602.426 725.852 604 729L606 730C606.671 731.342 605.42 733.609 606 735C607.596 738.83 610.532 741.872 610 744C612 745.458 613.799 746.889 616 748L615 751C623.075 756.267 629.278 768.681 640 765C640.507 771.38 644.71 771.191 649.911 772.985C655.352 774.862 659.163 776.519 665 777.173C671.467 777.897 677.344 779.419 683.961 778.946C694.609 778.185 704.5 772.856 714.001 768.923C716.21 768.008 718.678 768.081 720.83 767.017C726.48 764.224 730.373 756.91 736 755C737.533 752.148 740.256 750.559 741.954 747.812C748.362 737.44 754.361 722.147 755.816 710C756.814 701.659 757.257 690.436 755.741 682.17C749.828 649.927 720.496 623.367 688 621.089C678.641 620.434 669.035 621.087 659.961 623.041C657.139 623.649 653.843 623.494 651.17 624.599C648.781 625.585 647.245 627.813 644.961 628.978C642.471 630.248 639.554 630.067 637.015 631.278C633.271 633.064 630.464 636.322 626.826 638.272C624.206 639.677 621.122 639.486 618.553 640.85C613.344 643.615 610.137 651.1 607.339 655.911C599.223 669.863 596.23 682.912 596.961 699C597.253 705.439 596.941 716.185 603 720z"/>
<path style="fill:#f29619; stroke:none;" d="M1174 638C1176.11 641.679 1178.47 645.598 1182 648C1180.8 643.386 1179.05 638.87 1174 638z"/>
<path style="fill:#f8a324; stroke:none;" d="M1188 658C1188.45 664.619 1193.19 671.224 1200 672C1200.6 676.193 1202.98 679.831 1204 684L1200 684L1200 704L1216 704L1216 700C1217.64 700.545 1217.45 700.365 1218 702L1222 700C1222.85 702.575 1224.58 705.196 1224.16 707.999C1223.48 712.511 1220.15 715.093 1220 720C1224.36 719.66 1225.66 718.365 1226 714C1233.59 713.541 1237.81 720.181 1243 725L1240 724C1241.27 728.077 1243.91 730.765 1248 732L1248 728L1245 728C1243.9 720.473 1236.32 713.964 1231.31 708.576C1228.86 705.929 1227.49 703.182 1224 702C1222.37 687.283 1203.59 680.396 1200 666L1191 664C1190.47 661.31 1189.88 659.98 1188 658z"/>
<path style="fill:#ffcb20; stroke:none;" d="M704 672C701.914 664.568 692.771 662.152 686.089 660.756C670.624 657.526 657.257 659.512 646.206 671.554C634.47 684.343 632.922 699.136 638.539 715C639.368 717.341 639.662 720.283 640.983 722.391C642.622 725.007 645.803 726.856 648.17 728.745C653.627 733.1 660.03 737.86 667 739.471C681.065 742.721 695.246 736.842 705.866 727.892C717.137 718.393 718.569 696.947 713.571 684C711.554 678.775 710.151 673.04 704 672z"/>
<path style="fill:#ffc128; stroke:none;" d="M558 664C555.062 679.818 552.983 695.843 554.089 712C554.421 716.838 554.455 722.251 555.339 727C556.191 731.571 557.947 735.234 558 740L560 740C560 735.095 560.52 729.857 559.787 725C558.838 718.709 556.849 713.571 556.849 707C556.849 699.815 556.316 692.134 557.129 685C557.956 677.734 560 671.522 560 664L558 664z"/>
<path style="fill:#fab71f; stroke:none;" d="M598 672C596.735 677.6 595.016 682.098 595 688L597 688C597.116 682.402 598.761 677.406 600 672L598 672z"/>
<path style="fill:#f5a81f; stroke:none;" d="M595 688C595 697.821 594.385 708.39 596.75 717.996C599.634 729.713 605.25 743.379 612.901 752.791C626.346 769.328 646.536 777.705 667 780.424C682.428 782.475 706.537 781.251 717 768C712.178 768.701 709.287 772.049 704.834 773.505C688.71 778.778 669.319 781.948 653.424 774.145C647.956 771.461 641.169 772.182 640 765C628.483 767.514 624.328 755.16 615 751C615.986 749.521 616 749.797 616 748C614 746.542 612.201 745.111 610 744C609.616 735.729 601.866 728.388 603 720C594.325 711.749 599.457 697.929 595 688z"/>
<path style="fill:#f7b41f; stroke:none;" d="M756 688C756 695.456 756.963 703.67 755.486 711C753.196 722.366 747.364 732.087 744 743C755.351 733.158 757 715.945 757 702C757 697.465 757.769 692.215 756 688z"/>
<path style="fill:#f7a818; stroke:none;" d="M160 715C164.207 724.241 172.586 729.624 178.83 737.286C181.668 740.768 182.621 745.075 185.125 748.661C187.762 752.437 191.209 753.022 192 758C199.249 760.053 200.824 769.754 208 771C208.064 776.732 210.153 782.077 216 784C216.543 791.764 223.907 796.664 228.997 801.911C231.252 804.234 233.544 805.693 234 809C239.301 812.735 242.492 818.619 248 822C245.309 814.112 239.958 810.385 235.159 803.985C232.373 800.27 230.817 795.867 226 795C224.197 788.315 221.02 785.955 217.053 780.776C215.267 778.444 214.288 775.613 212.494 773.29C209.046 768.825 204.607 765.445 201.2 760.83C197.197 755.408 192.789 748.111 186 746C184.92 738.513 178.846 733.152 173.831 728.15C168.941 723.272 166.179 718.658 160 715z"/>
<path style="fill:#fab323; stroke:none;" d="M468 800C466.489 808.103 464.023 815.684 464 824C471.138 824.715 477.687 827.686 485 828C480.154 824.547 470.956 822.396 465 822C466.461 815.611 470.473 806.335 468 800z"/>
<path style="fill:#fec923; stroke:none;" d="M608 800C608.752 803.527 611.897 803.731 615 805.167C619.642 807.314 621.622 809.977 627 810C629.45 817.04 641.798 816.551 648 818.306C650.688 819.066 654.102 819.356 655.397 822.228C656.652 825.015 656 829.022 656 832L656 853L656 926C661.48 929.074 665.477 935.155 670 939.522C671.698 941.161 674.083 943.959 676.754 943.353C681.417 942.296 682.991 935.525 688 934L689 930C682.651 932.888 679.432 938.597 672 939L670 932L677 932C676.027 926.171 670.754 926.287 668 931L665 931C663.774 928.965 663.297 928.674 661 928C661 923.85 660.393 919.155 661.299 915.089C662.024 911.83 663.836 909.473 663.981 905.996C665.227 876.113 664 845.912 664 816L640 815C639.327 806.351 630.49 808.996 624 809C622.311 803.633 613.246 800.829 608 800z"/>
<path style="fill:#fdbe23; stroke:none;" d="M696 924C698.802 917.322 697 907.216 697 900L697 847C697 841.002 697.092 834.997 696.986 829C696.944 826.628 696.254 823.492 697.773 821.434C699.622 818.928 703.248 819.115 706 818.714C710.858 818.008 715.215 815.85 720 815C715.819 813.372 712.132 815.66 708 816.661C704.73 817.452 701.221 817.516 698.019 818.558C696.077 819.19 694.424 820.176 693.604 822.133C692.011 825.938 694.066 830.232 694.675 834C695.464 838.874 695 844.076 695 849C695 873.698 692.904 899.502 696 924z"/>
<path style="fill:#fdb803; stroke:none;" d="M240 816C240.462 822.862 245.987 823.538 248.168 829.115C249.955 833.683 244.344 831.408 243 829L239 829C239.807 835.385 240 841.561 240 848C247.636 848 255.682 846.241 256 856C258.694 853.301 259.611 850.776 260 847C264.245 851.094 269.264 854.79 273.275 859.04C278.159 864.216 281.633 870.694 286.445 876.08C290.139 880.214 293.472 886.82 299 888C291.513 877.482 283.992 867.337 276.14 857.264C273.901 854.391 270.03 853.6 267.908 850.701C261.173 841.497 256.735 831.063 248.453 822.884C245.672 820.138 243.717 817.392 240 816z"/>
<path style="fill:#f6a522; stroke:none;" d="M640 817C642.552 820.953 647.915 820.946 651 825C649.125 825.547 647.745 826.11 646 827C651.054 833.999 649 844.719 649 853L649 913C641.695 911.884 644 923.086 644 928L659 928C658.02 926.217 658.092 926.406 656 926L656 851L656 831C656 828.167 656.717 824.043 655.397 821.434C653.358 817.407 643.916 817.043 640 817z"/>
<path style="fill:#f8a523; stroke:none;" d="M718 817C714.104 822.952 701.464 814.115 697.117 821.434C695.572 824.036 696.985 829.068 696.999 832C697.041 840.666 697 849.334 697 858L697 900C697 906.507 698.306 914.627 696.686 920.946C695.358 926.127 689.461 928.416 688 934C684.517 934.588 683.353 935.763 682 939L688 938C688.373 934.998 691.506 933.58 694 932L693 929C697.543 927.565 697.893 924.417 698 920C699.003 922.667 699.621 925.175 700 928C703.507 919.643 701 906.06 701 897L701 828C705.497 828 716.51 830.06 719.142 825.427C720.49 823.054 719.998 819.619 720 817L718 817z"/>
<path style="fill:#f6a814; stroke:none;" d="M257 832C258.206 837.257 261.445 840.614 264.363 845C265.858 847.247 266.553 850.213 268.521 852.102C272.33 855.759 275.902 856.635 278 862C280.108 856.358 274.381 853.227 270.888 849.675C266.577 845.291 261.466 838.184 261 832L257 832z"/>
<path style="fill:#f9ab17; stroke:none;" d="M327 922C329.314 930.217 338.072 935.669 341 944L347 944C344.549 939.993 341.531 937.36 338.708 933.745C336.314 930.678 336.124 928.686 332 928C331.696 924.171 330.795 922.827 327 922z"/>
<path style="fill:#f7a817; stroke:none;" d="M348 948C350.145 952.202 353.92 954.773 356.741 958.475C362.066 965.461 367.3 972.824 372.41 980C375.78 984.732 377.764 990.986 384 992C382.045 987.777 378.767 984.553 376.156 980.714C374.38 978.104 373.328 974.934 371.239 972.553C369.673 970.769 367.5 969.709 366.12 967.737C361.026 960.456 357.007 951.242 348 948z"/>
<path style="fill:#f9ae14; stroke:none;" d="M384 992C386.195 999.06 391.387 1006.53 398 1010C395.553 1004.71 389.499 993.78 384 992z"/>
<path style="fill:#f6a619; stroke:none;" d="M401 1011C403.052 1022.33 413.307 1029.31 420.367 1037.46C423.145 1040.66 424.061 1045.14 426.88 1048.32C434.821 1057.25 443.758 1065.21 451.604 1074.26C455.43 1078.67 457.922 1084.87 463 1088C462.923 1085.65 463.209 1084.23 464 1082C456.014 1080.1 452.161 1071.11 446.586 1065.59C444.639 1063.66 442.291 1062.28 440.738 1059.96C438.915 1057.22 438.702 1053.89 436.582 1051.29C434.552 1048.81 431.682 1047.13 429.749 1044.56C426.964 1040.85 424.902 1036.65 421.64 1033.26C418.631 1030.13 414.71 1028.25 411.839 1024.91C408.189 1020.66 405.616 1014.07 401 1011z"/>
<path style="fill:#fbb110; stroke:none;" d="M432 1053C433.527 1063.58 446.469 1068.29 448 1078C451.163 1079.11 453.329 1081.01 456 1083C453.947 1073.42 446.386 1069.03 440.019 1062.52C437.025 1059.46 435.362 1055.71 432 1053z"/>
<path style="fill:#f8a918; stroke:none;" d="M480 1109C480.399 1114.24 483.479 1115.63 486.296 1119.63C490.286 1125.3 493.401 1134.75 501 1136C502.675 1142.21 507.363 1146.85 511 1152C513.49 1145.85 505.698 1142.26 505 1136C494.265 1130.25 490.337 1115.8 480 1109z"/>
<path style="fill:#fcb30e; stroke:none;" d="M496 1135L496 1140C501.696 1142.95 504.675 1149.85 511 1152C508.299 1146.31 503.553 1141.84 501 1136L496 1135z"/>
<path style="fill:#fbad15; stroke:none;" d="M560 1211L560 1216C566.461 1218.37 569.002 1227.2 575 1231C574.495 1224.3 566.55 1212.93 560 1211z"/>
</svg>
