<?xml version="1.0" standalone="yes"?>
<svg xmlns="http://www.w3.org/2000/svg" width="352" height="352">
<path style="fill:#ffffff; stroke:none;" d="M0 0L0 352L352 352L352 0L0 0z"/>
<path style="fill:#6060ff; stroke:none;" d="M176 47L177 48L176 47z"/>
<path style="fill:#b3b3f6; stroke:none;" d="M175 48L176 49L175 48z"/>
<path style="fill:#0000ff; stroke:none;" d="M176 48C166.95 62.7846 158.443 77.9454 149.85 93C146.804 98.3364 143.476 107.89 137.896 110.972C132.661 113.863 122.844 112 117 112L66 112C67.9128 118.045 71.7146 123.508 74.8495 129L91.5787 158C94.4059 162.931 100.724 170.142 100.724 176C100.724 181.858 94.4059 189.069 91.5787 194C85.8373 204.015 79.9886 213.966 74.2809 224C71.3111 229.221 67.7044 234.206 66 240L117 240C122.844 240 132.662 238.137 137.896 241.028C143.487 244.115 146.786 253.662 149.85 259C158.479 274.031 166.953 289.217 176 304C180.52 299.617 183.305 293.435 186.421 288C192.163 277.985 198.014 268.035 203.719 258C206.596 252.94 209.43 245.129 214.21 241.603C219.033 238.046 229.278 240 235 240L287 240C285.087 233.955 281.285 228.492 278.15 223L261.421 194C258.594 189.068 252.276 181.858 252.276 176C252.276 170.142 258.594 162.932 261.421 158C267.163 147.985 273.011 138.034 278.719 128C281.689 122.779 285.296 117.794 287 112L235 112C229.278 112 219.033 113.954 214.21 110.397C209.43 106.871 206.596 99.0596 203.719 94C197.824 83.6303 191.903 73.2484 185.799 63C182.772 57.9174 180.267 52.1375 176 48z"/>
<path style="fill:#b3b3f3; stroke:none;" d="M177 48L178 49L177 48z"/>
<path style="fill:#7878f7; stroke:none;" d="M174 50L175 51L174 50z"/>
<path style="fill:#7878fb; stroke:none;" d="M178 50L179 51L178 50z"/>
<path style="fill:#3f3ff7; stroke:none;" d="M173 52L174 53L173 52z"/>
<path style="fill:#4343f8; stroke:none;" d="M179 52L180 53L179 52z"/>
<path style="fill:#a6a6f8; stroke:none;" d="M171 55L172 56L171 55z"/>
<path style="fill:#a5a5f3; stroke:none;" d="M181 55L182 56L181 55z"/>
<path style="fill:#6868f9; stroke:none;" d="M170 57L171 58L170 57z"/>
<path style="fill:#6868fb; stroke:none;" d="M182 57L183 58L182 57z"/>
<path style="fill:#3838fb; stroke:none;" d="M183 59L184 60L183 59z"/>
<path style="fill:#c7c7f5; stroke:none;" d="M168 60L169 61L168 60z"/>
<path style="fill:#c4c4f1; stroke:none;" d="M184 60L185 61L184 60z"/>
<path style="fill:#9797f6; stroke:none;" d="M167 62L168 63L167 62z"/>
<path style="fill:#9696f6; stroke:none;" d="M185 62L186 63L185 62z"/>
<path style="fill:#5858fb; stroke:none;" d="M166 64L167 65L166 64z"/>
<path style="fill:#5757fc; stroke:none;" d="M186 64L187 65L186 64z"/>
<path style="fill:#bebef8; stroke:none;" d="M164 67L165 68L164 67z"/>
<path style="fill:#babaf4; stroke:none;" d="M188 67L189 68L188 67z"/>
<path style="fill:#8282f4; stroke:none;" d="M163 69L164 70L163 69z"/>
<path style="fill:#8282f6; stroke:none;" d="M189 69L190 70L189 69z"/>
<path style="fill:#4a4afc; stroke:none;" d="M162 71L163 72L162 71z"/>
<path style="fill:#4d4dfd; stroke:none;" d="M190 71L191 72L190 71z"/>
<path style="fill:#b0b0f8; stroke:none;" d="M160 74L161 75L160 74z"/>
<path style="fill:#b0b0f6; stroke:none;" d="M192 74L193 75L192 74z"/>
<path style="fill:#7171f4; stroke:none;" d="M159 76L160 77L159 76z"/>
<path style="fill:#7272f6; stroke:none;" d="M193 76L194 77L193 76z"/>
<path style="fill:#3f3ff3; stroke:none;" d="M158 78L159 79L158 78z"/>
<path style="fill:#4242f6; stroke:none;" d="M194 78L195 79L194 78z"/>
<path style="fill:#a1a1f9; stroke:none;" d="M156 81L157 82L156 81z"/>
<path style="fill:#a0a0f7; stroke:none;" d="M196 81L197 82L196 81z"/>
<path style="fill:#6666f5; stroke:none;" d="M155 83L156 84L155 83z"/>
<path style="fill:#6565f8; stroke:none;" d="M197 83L198 84L197 83z"/>
<path style="fill:#c5c5fd; stroke:none;" d="M153 86L154 87L153 86z"/>
<path style="fill:#c4c4f7; stroke:none;" d="M199 86L200 87L199 86z"/>
<path style="fill:#9191f3; stroke:none;" d="M152 88L153 89L152 88z"/>
<path style="fill:#babafb; stroke:none;" d="M176 88L177 89L176 88z"/>
<path style="fill:#9191f2; stroke:none;" d="M200 88L201 89L200 88z"/>
<path style="fill:#5757fc; stroke:none;" d="M175 89L176 90L175 89z"/>
<path style="fill:#ffffff; stroke:none;" d="M176 89C171.742 95.956 166.469 103.198 164 111L189 111C186.661 103.608 181.574 94.4042 176 89z"/>
<path style="fill:#5656fd; stroke:none;" d="M177 89L178 90L177 89z"/>
<path style="fill:#5959f7; stroke:none;" d="M151 90L152 91L151 90z"/>
<path style="fill:#5959f8; stroke:none;" d="M201 90L202 91L201 90z"/>
<path style="fill:#8f8ff7; stroke:none;" d="M174 91L175 92L174 91z"/>
<path style="fill:#8e8ef6; stroke:none;" d="M178 91L179 92L178 91z"/>
<path style="fill:#bbbbfe; stroke:none;" d="M149 93L150 94L149 93z"/>
<path style="fill:#c6c6f4; stroke:none;" d="M173 93L174 94L173 93z"/>
<path style="fill:#c3c3f0; stroke:none;" d="M179 93L180 94L179 93z"/>
<path style="fill:#bbbbf7; stroke:none;" d="M203 93L204 94L203 93z"/>
<path style="fill:#8181f3; stroke:none;" d="M148 95L149 96L148 95z"/>
<path style="fill:#8282f4; stroke:none;" d="M204 95L205 96L204 95z"/>
<path style="fill:#6464f7; stroke:none;" d="M171 96L172 97L171 96z"/>
<path style="fill:#6363fb; stroke:none;" d="M181 96L182 97L181 96z"/>
<path style="fill:#4949f2; stroke:none;" d="M147 97L148 98L147 97z"/>
<path style="fill:#4d4df6; stroke:none;" d="M205 97L206 98L205 97z"/>
<path style="fill:#a0a0f6; stroke:none;" d="M170 98L171 99L170 98z"/>
<path style="fill:#9f9ff2; stroke:none;" d="M182 98L183 99L182 98z"/>
<path style="fill:#afaffb; stroke:none;" d="M145 100L146 101L145 100z"/>
<path style="fill:#aeaef9; stroke:none;" d="M207 100L208 101L207 100z"/>
<path style="fill:#3d3dfb; stroke:none;" d="M168 101L169 102L168 101z"/>
<path style="fill:#4141fb; stroke:none;" d="M184 101L185 102L184 101z"/>
<path style="fill:#7070f2; stroke:none;" d="M144 102L145 103L144 102M208 102L209 103L208 102z"/>
<path style="fill:#7272f5; stroke:none;" d="M167 103L168 104L167 103z"/>
<path style="fill:#7272f7; stroke:none;" d="M185 103L186 104L185 103z"/>
<path style="fill:#3a3af7; stroke:none;" d="M143 104L144 105L143 104z"/>
<path style="fill:#3f3ff9; stroke:none;" d="M209 104L210 105L209 104z"/>
<path style="fill:#b2b2f4; stroke:none;" d="M166 105L167 106L166 105z"/>
<path style="fill:#b0b0f3; stroke:none;" d="M186 105L187 106L186 105z"/>
<path style="fill:#9d9deb; stroke:none;" d="M141 107L142 108L141 107z"/>
<path style="fill:#9d9dee; stroke:none;" d="M211 107L212 108L211 107z"/>
<path style="fill:#4a4af8; stroke:none;" d="M164 108L165 109L164 108z"/>
<path style="fill:#4d4dfb; stroke:none;" d="M188 108L189 109L188 108z"/>
<path style="fill:#6464f2; stroke:none;" d="M140 109L141 110L140 109z"/>
<path style="fill:#6464f4; stroke:none;" d="M212 109L213 110L212 109z"/>
<path style="fill:#7d7dd7; stroke:none;" d="M163 110C166.656 114.184 178.675 112.084 183.995 111.995C186.626 111.952 188.288 111.96 190 110C181.815 111.949 171.185 111.949 163 110M65 113C73.6242 110.947 83.1739 112 92 112L139 112C133.783 109.811 126.619 111 121 111L83 111C78.0992 111 68.4071 109.101 65 113M214 111C219.951 113.497 228.58 112 235 112L268 112C274.659 112 281.487 111.449 288 113C284.492 108.986 274.06 111 269 111L214 111z"/>
<path style="fill:#9393f5; stroke:none;" d="M66 114L67 115L66 114z"/>
<path style="fill:#9393f7; stroke:none;" d="M286 114L287 115L286 114z"/>
<path style="fill:#c1c1f2; stroke:none;" d="M67 116L68 117L67 116z"/>
<path style="fill:#c5c5f4; stroke:none;" d="M285 116L286 117L285 116z"/>
<path style="fill:#3636fb; stroke:none;" d="M68 117L69 118L68 117z"/>
<path style="fill:#6363f3; stroke:none;" d="M69 119L70 120L69 119z"/>
<path style="fill:#6363ef; stroke:none;" d="M283 119L284 120L283 119z"/>
<path style="fill:#a0a0f4; stroke:none;" d="M70 121L71 122L70 121z"/>
<path style="fill:#a0a0f8; stroke:none;" d="M282 121L283 122L282 121z"/>
<path style="fill:#4141fa; stroke:none;" d="M72 124L73 125L72 124z"/>
<path style="fill:#3e3ef6; stroke:none;" d="M280 124L281 125L280 124z"/>
<path style="fill:#7171ee; stroke:none;" d="M73 126L74 127L73 126z"/>
<path style="fill:#7171ef; stroke:none;" d="M279 126L280 127L279 126z"/>
<path style="fill:#acacf6; stroke:none;" d="M74 128L75 129L74 128z"/>
<path style="fill:#acacf8; stroke:none;" d="M278 128L279 129L278 128z"/>
<path style="fill:#4a4af9; stroke:none;" d="M76 131L77 132L76 131z"/>
<path style="fill:#4848f4; stroke:none;" d="M276 131L277 132L276 131z"/>
<path style="fill:#7b7bfc; stroke:none;" d="M100 132L101 133L100 132z"/>
<path style="fill:#ffffff; stroke:none;" d="M101 132C103.811 139.721 108.724 148.698 114 155C118.766 147.775 123.574 139.951 127 132L101 132M151.39 133.028C148.261 135.015 146.492 139.888 144.719 143C140.337 150.692 135.909 158.384 131.397 166C129.501 169.199 126.292 173.039 126.863 177C127.327 180.225 129.777 183.266 131.397 186C134.533 191.294 137.466 196.706 140.603 202C143.454 206.811 146.587 215.923 151.39 218.972C153.792 220.498 157.293 219.999 160 220L179 220C184.908 220 196.504 222.215 201.61 218.972C206.413 215.922 209.546 206.811 212.397 202C215.534 196.706 218.467 191.294 221.603 186C223.213 183.283 225.704 180.216 226.127 177C226.631 173.158 223.386 169.153 221.579 166L208.281 143C206.508 139.888 204.739 135.015 201.61 133.028C199.208 131.502 195.707 132.001 193 132L174 132C168.092 132 156.496 129.785 151.39 133.028M226 132C229.426 139.951 234.234 147.775 239 155C244.276 148.698 249.189 139.721 252 132L226 132z"/>
<path style="fill:#7a7afb; stroke:none;" d="M252 132L253 133L252 132z"/>
<path style="fill:#8282eb; stroke:none;" d="M77 133L78 134L77 133z"/>
<path style="fill:#9e9ef0; stroke:none;" d="M126 133L127 134L126 133z"/>
<path style="fill:#9d9def; stroke:none;" d="M226 133L227 134L226 133z"/>
<path style="fill:#8383ef; stroke:none;" d="M275 133L276 134L275 133z"/>
<path style="fill:#4d4df6; stroke:none;" d="M149 134L150 135L149 134z"/>
<path style="fill:#4c4cf9; stroke:none;" d="M203 134L204 135L203 134z"/>
<path style="fill:#b7b7f5; stroke:none;" d="M78 135L79 136L78 135z"/>
<path style="fill:#c3c3f2; stroke:none;" d="M102 135L103 136L102 135z"/>
<path style="fill:#6363f3; stroke:none;" d="M125 135L126 136L125 135z"/>
<path style="fill:#6262f7; stroke:none;" d="M227 135L228 136L227 135z"/>
<path style="fill:#c7c7f5; stroke:none;" d="M250 135L251 136L250 135z"/>
<path style="fill:#bdbdf9; stroke:none;" d="M274 135L275 136L274 135z"/>
<path style="fill:#8787f3; stroke:none;" d="M148 136L149 137L148 136z"/>
<path style="fill:#8686f0; stroke:none;" d="M204 136L205 137L204 136z"/>
<path style="fill:#8d8df5; stroke:none;" d="M103 137L104 138L103 137z"/>
<path style="fill:#8b8bf5; stroke:none;" d="M249 137L250 138L249 137z"/>
<path style="fill:#5555f6; stroke:none;" d="M80 138L81 139L80 138z"/>
<path style="fill:#c5c5f5; stroke:none;" d="M123 138L124 139L123 138z"/>
<path style="fill:#bfbfee; stroke:none;" d="M147 138L148 139L147 138z"/>
<path style="fill:#babaf8; stroke:none;" d="M205 138L206 139L205 138z"/>
<path style="fill:#c2c2f2; stroke:none;" d="M229 138L230 139L229 138z"/>
<path style="fill:#5555f3; stroke:none;" d="M272 138L273 139L272 138z"/>
<path style="fill:#5353f9; stroke:none;" d="M104 139L105 140L104 139z"/>
<path style="fill:#5050f7; stroke:none;" d="M248 139L249 140L248 139z"/>
<path style="fill:#9595f9; stroke:none;" d="M81 140L82 141L81 140z"/>
<path style="fill:#8b8bf3; stroke:none;" d="M122 140L123 141L122 140z"/>
<path style="fill:#8b8bf1; stroke:none;" d="M230 140L231 141L230 140z"/>
<path style="fill:#9595f8; stroke:none;" d="M271 140L272 141L271 140z"/>
<path style="fill:#5a5af3; stroke:none;" d="M145 141L146 142L145 141z"/>
<path style="fill:#5757f7; stroke:none;" d="M207 141L208 142L207 141z"/>
<path style="fill:#c4c4f6; stroke:none;" d="M82 142L83 143L82 142z"/>
<path style="fill:#b6b6f4; stroke:none;" d="M106 142L107 143L106 142z"/>
<path style="fill:#5151f7; stroke:none;" d="M121 142L122 143L121 142z"/>
<path style="fill:#5353f9; stroke:none;" d="M231 142L232 143L231 142z"/>
<path style="fill:#b8b8f4; stroke:none;" d="M246 142L247 143L246 142z"/>
<path style="fill:#c8c8f8; stroke:none;" d="M270 142L271 143L270 142z"/>
<path style="fill:#3737f9; stroke:none;" d="M83 143L84 144L83 143z"/>
<path style="fill:#9898f3; stroke:none;" d="M144 143L145 144L144 143z"/>
<path style="fill:#9696f0; stroke:none;" d="M208 143L209 144L208 143z"/>
<path style="fill:#3434f7; stroke:none;" d="M269 143L270 144L269 143z"/>
<path style="fill:#7f7ff7; stroke:none;" d="M107 144L108 145L107 144z"/>
<path style="fill:#7e7ef7; stroke:none;" d="M245 144L246 145L245 144z"/>
<path style="fill:#6868f5; stroke:none;" d="M84 145L85 146L84 145z"/>
<path style="fill:#b9b9f3; stroke:none;" d="M119 145L120 146L119 145z"/>
<path style="fill:#cacafb; stroke:none;" d="M143 145L144 146L143 145z"/>
<path style="fill:#c5c5f8; stroke:none;" d="M209 145L210 146L209 145z"/>
<path style="fill:#b4b4f2; stroke:none;" d="M233 145L234 146L233 145z"/>
<path style="fill:#6868f2; stroke:none;" d="M268 145L269 146L268 145z"/>
<path style="fill:#4545fa; stroke:none;" d="M108 146L109 147L108 146z"/>
<path style="fill:#3737fb; stroke:none;" d="M142 146L143 147L142 146z"/>
<path style="fill:#3a3afb; stroke:none;" d="M210 146L211 147L210 146z"/>
<path style="fill:#4545f8; stroke:none;" d="M244 146L245 147L244 146z"/>
<path style="fill:#a2a2f8; stroke:none;" d="M85 147L86 148L85 147z"/>
<path style="fill:#7c7cf4; stroke:none;" d="M118 147L119 148L118 147z"/>
<path style="fill:#7c7cf2; stroke:none;" d="M234 147L235 148L234 147z"/>
<path style="fill:#a3a3fa; stroke:none;" d="M267 147L268 148L267 147z"/>
<path style="fill:#6969f0; stroke:none;" d="M141 148L142 149L141 148z"/>
<path style="fill:#6868f2; stroke:none;" d="M211 148L212 149L211 148z"/>
<path style="fill:#a7a7f6; stroke:none;" d="M110 149L111 150L110 149z"/>
<path style="fill:#4343fb; stroke:none;" d="M117 149L118 150L117 149z"/>
<path style="fill:#4444fb; stroke:none;" d="M235 149L236 150L235 149z"/>
<path style="fill:#a7a7f9; stroke:none;" d="M242 149L243 150L242 149z"/>
<path style="fill:#4141fc; stroke:none;" d="M87 150L88 151L87 150z"/>
<path style="fill:#a6a6f4; stroke:none;" d="M140 150L141 151L140 150z"/>
<path style="fill:#a3a3ef; stroke:none;" d="M212 150L213 151L212 150z"/>
<path style="fill:#3e3efc; stroke:none;" d="M265 150L266 151L265 150z"/>
<path style="fill:#7272fb; stroke:none;" d="M111 151L112 152L111 151z"/>
<path style="fill:#7070f8; stroke:none;" d="M241 151L242 152L241 151z"/>
<path style="fill:#7979f3; stroke:none;" d="M88 152L89 153L88 152z"/>
<path style="fill:#a5a5f1; stroke:none;" d="M115 152L116 153L115 152M237 152L238 153L237 152z"/>
<path style="fill:#7979f3; stroke:none;" d="M264 152L265 153L264 152z"/>
<path style="fill:#3a3afb; stroke:none;" d="M112 153L113 154L112 153z"/>
<path style="fill:#4242f6; stroke:none;" d="M138 153L139 154L138 153z"/>
<path style="fill:#4343f8; stroke:none;" d="M214 153L215 154L214 153z"/>
<path style="fill:#3838fc; stroke:none;" d="M240 153L241 154L240 153z"/>
<path style="fill:#aeaef7; stroke:none;" d="M89 154L90 155L89 154z"/>
<path style="fill:#7d7df4; stroke:none;" d="M114 154L115 155L114 154z"/>
<path style="fill:#7c7cf2; stroke:none;" d="M238 154L239 155L238 154z"/>
<path style="fill:#afaffb; stroke:none;" d="M263 154L264 155L263 154z"/>
<path style="fill:#7c7cf5; stroke:none;" d="M137 155L138 156L137 155z"/>
<path style="fill:#7b7bed; stroke:none;" d="M215 155L216 156L215 155z"/>
<path style="fill:#4b4bfb; stroke:none;" d="M91 157L92 158L91 157z"/>
<path style="fill:#b2b2f5; stroke:none;" d="M136 157L137 158L136 157z"/>
<path style="fill:#b0b0f0; stroke:none;" d="M216 157L217 158L216 157z"/>
<path style="fill:#4b4bf8; stroke:none;" d="M261 157L262 158L261 157z"/>
<path style="fill:#8686f8; stroke:none;" d="M92 159L93 160L92 159z"/>
<path style="fill:#8787f8; stroke:none;" d="M260 159L261 160L260 159z"/>
<path style="fill:#4e4ef0; stroke:none;" d="M134 160L135 161L134 160z"/>
<path style="fill:#4e4ef5; stroke:none;" d="M218 160L219 161L218 160z"/>
<path style="fill:#b9b9f7; stroke:none;" d="M93 161L94 162L93 161z"/>
<path style="fill:#bfbff9; stroke:none;" d="M259 161L260 162L259 161z"/>
<path style="fill:#8a8af6; stroke:none;" d="M133 162L134 163L133 162z"/>
<path style="fill:#8888f3; stroke:none;" d="M219 162L220 163L219 162z"/>
<path style="fill:#5959fa; stroke:none;" d="M95 164L96 165L95 164z"/>
<path style="fill:#c0c0fd; stroke:none;" d="M132 164L133 165L132 164z"/>
<path style="fill:#bbbbf8; stroke:none;" d="M220 164L221 165L220 164z"/>
<path style="fill:#5858f7; stroke:none;" d="M257 164L258 165L257 164z"/>
<path style="fill:#9393f5; stroke:none;" d="M96 166L97 167L96 166z"/>
<path style="fill:#9494f7; stroke:none;" d="M256 166L257 167L256 166z"/>
<path style="fill:#5d5dee; stroke:none;" d="M130 167L131 168L130 167z"/>
<path style="fill:#5d5df2; stroke:none;" d="M222 167L223 168L222 167z"/>
<path style="fill:#c7c7f3; stroke:none;" d="M97 168L98 169L97 168z"/>
<path style="fill:#cbcbf5; stroke:none;" d="M255 168L256 169L255 168z"/>
<path style="fill:#3737ff; stroke:none;" d="M98 169L99 170L98 169z"/>
<path style="fill:#9696f7; stroke:none;" d="M129 169L130 170L129 169z"/>
<path style="fill:#9595f2; stroke:none;" d="M223 169L224 170L223 169z"/>
<path style="fill:#3939ff; stroke:none;" d="M254 169L255 170L254 169z"/>
<path style="fill:#6969f6; stroke:none;" d="M99 171L100 172L99 171z"/>
<path style="fill:#c9c9f8; stroke:none;" d="M224 171L225 172L224 171z"/>
<path style="fill:#6969f7; stroke:none;" d="M253 171L254 172L253 171z"/>
<path style="fill:#3b3bf7; stroke:none;" d="M127 172L128 173L127 172z"/>
<path style="fill:#3b3bfa; stroke:none;" d="M225 172L226 173L225 172z"/>
<path style="fill:#a4a4f5; stroke:none;" d="M100 173L101 174L100 173z"/>
<path style="fill:#a5a5f8; stroke:none;" d="M252 173L253 174L252 173z"/>
<path style="fill:#6c6cf8; stroke:none;" d="M126 174L127 175L126 174z"/>
<path style="fill:#6969f9; stroke:none;" d="M226 174L227 175L226 174z"/>
<path style="fill:#dbdbf1; stroke:none;" d="M101.333 175.667C101.278 175.722 101.222 176.778 101.667 176.333C101.722 176.278 101.778 175.222 101.333 175.667z"/>
<path style="fill:#e2e2f4; stroke:none;" d="M251.333 175.667C251.278 175.722 251.222 176.778 251.667 176.333C251.722 176.278 251.778 175.222 251.333 175.667z"/>
<path style="fill:#6c6cf9; stroke:none;" d="M126 177L127 178L126 177z"/>
<path style="fill:#6c6cf8; stroke:none;" d="M226 177L227 178L226 177z"/>
<path style="fill:#a5a5f7; stroke:none;" d="M100 178L101 179L100 178z"/>
<path style="fill:#a5a5f5; stroke:none;" d="M252 178L253 179L252 178z"/>
<path style="fill:#3c3cfa; stroke:none;" d="M127 179L128 180L127 179z"/>
<path style="fill:#3a3af7; stroke:none;" d="M225 179L226 180L225 179z"/>
<path style="fill:#6969f6; stroke:none;" d="M99 180L100 181L99 180M253 180L254 181L253 180z"/>
<path style="fill:#3838ff; stroke:none;" d="M98 182L99 183L98 182z"/>
<path style="fill:#9797f3; stroke:none;" d="M129 182L130 183L129 182z"/>
<path style="fill:#9696f6; stroke:none;" d="M223 182L224 183L223 182z"/>
<path style="fill:#3838ff; stroke:none;" d="M254 182L255 183L254 182z"/>
<path style="fill:#c8c8f4; stroke:none;" d="M255 183L256 184L255 183z"/>
<path style="fill:#5d5df1; stroke:none;" d="M130 184L131 185L130 184z"/>
<path style="fill:#5d5def; stroke:none;" d="M222 184L223 185L222 184z"/>
<path style="fill:#9494f7; stroke:none;" d="M96 185L97 186L96 185z"/>
<path style="fill:#9494f5; stroke:none;" d="M256 185L257 186L256 185z"/>
<path style="fill:#5858f7; stroke:none;" d="M95 187L96 188L95 187z"/>
<path style="fill:#bcbcf8; stroke:none;" d="M132 187L133 188L132 187z"/>
<path style="fill:#bfbffe; stroke:none;" d="M220 187L221 188L220 187z"/>
<path style="fill:#5858fa; stroke:none;" d="M257 187L258 188L257 187z"/>
<path style="fill:#8b8bf4; stroke:none;" d="M133 189L134 190L133 189z"/>
<path style="fill:#8a8af5; stroke:none;" d="M219 189L220 190L219 189z"/>
<path style="fill:#bfbff9; stroke:none;" d="M93 190L94 191L93 190z"/>
<path style="fill:#babaf7; stroke:none;" d="M259 190L260 191L259 190z"/>
<path style="fill:#4f4ff5; stroke:none;" d="M134 191L135 192L134 191z"/>
<path style="fill:#4f4ff1; stroke:none;" d="M218 191L219 192L218 191z"/>
<path style="fill:#8787f7; stroke:none;" d="M92 192L93 193L92 192z"/>
<path style="fill:#8787f8; stroke:none;" d="M260 192L261 193L260 192z"/>
<path style="fill:#4c4cf8; stroke:none;" d="M91 194L92 195L91 194z"/>
<path style="fill:#b2b2f0; stroke:none;" d="M136 194L137 195L136 194z"/>
<path style="fill:#b0b0f4; stroke:none;" d="M216 194L217 195L216 194z"/>
<path style="fill:#4c4cfa; stroke:none;" d="M261 194L262 195L261 194z"/>
<path style="fill:#7c7cf7; stroke:none;" d="M137 196L138 197L137 196z"/>
<path style="fill:#7c7cef; stroke:none;" d="M215 196L216 197L215 196z"/>
<path style="fill:#afaffb; stroke:none;" d="M89 197L90 198L89 197z"/>
<path style="fill:#ffffff; stroke:none;" d="M113 197C109.576 204.945 103.963 211.86 101 220L127 220C123.729 212.41 119.093 202.629 113 197z"/>
<path style="fill:#7b7bf2; stroke:none;" d="M114 197L115 198L114 197z"/>
<path style="fill:#7c7cf5; stroke:none;" d="M238 197L239 198L238 197z"/>
<path style="fill:#ffffff; stroke:none;" d="M239 197C234.234 204.225 229.426 212.049 226 220L252 220C249.189 212.279 244.276 203.302 239 197z"/>
<path style="fill:#afaff7; stroke:none;" d="M263 197L264 198L263 197z"/>
<path style="fill:#3939fd; stroke:none;" d="M112 198L113 199L112 198z"/>
<path style="fill:#4545f8; stroke:none;" d="M138 198L139 199L138 198z"/>
<path style="fill:#4040f4; stroke:none;" d="M214 198L215 199L214 198z"/>
<path style="fill:#3838fb; stroke:none;" d="M240 198L241 199L240 198z"/>
<path style="fill:#7a7af3; stroke:none;" d="M88 199L89 200L88 199z"/>
<path style="fill:#a4a4f2; stroke:none;" d="M115 199L116 200L115 199z"/>
<path style="fill:#a6a6f2; stroke:none;" d="M237 199L238 200L237 199z"/>
<path style="fill:#7979f3; stroke:none;" d="M264 199L265 200L264 199z"/>
<path style="fill:#7171f8; stroke:none;" d="M111 200L112 201L111 200z"/>
<path style="fill:#7070fb; stroke:none;" d="M241 200L242 201L241 200z"/>
<path style="fill:#3e3efc; stroke:none;" d="M87 201L88 202L87 201z"/>
<path style="fill:#a6a6f1; stroke:none;" d="M140 201L141 202L140 201z"/>
<path style="fill:#a4a4f3; stroke:none;" d="M212 201L213 202L212 201z"/>
<path style="fill:#4141fc; stroke:none;" d="M265 201L266 202L265 201z"/>
<path style="fill:#a7a7f9; stroke:none;" d="M110 202L111 203L110 202z"/>
<path style="fill:#4444fb; stroke:none;" d="M117 202L118 203L117 202z"/>
<path style="fill:#4343fb; stroke:none;" d="M235 202L236 203L235 202z"/>
<path style="fill:#a7a7f6; stroke:none;" d="M242 202L243 203L242 202z"/>
<path style="fill:#6b6bf3; stroke:none;" d="M141 203L142 204L141 203z"/>
<path style="fill:#6868f0; stroke:none;" d="M211 203L212 204L211 203z"/>
<path style="fill:#a2a2fa; stroke:none;" d="M85 204L86 205L85 204z"/>
<path style="fill:#7b7bf2; stroke:none;" d="M118 204L119 205L118 204z"/>
<path style="fill:#7d7df4; stroke:none;" d="M234 204L235 205L234 204z"/>
<path style="fill:#a2a2f9; stroke:none;" d="M267 204L268 205L267 204z"/>
<path style="fill:#4646f8; stroke:none;" d="M108 205L109 206L108 205z"/>
<path style="fill:#3b3bfb; stroke:none;" d="M142 205L143 206L142 205z"/>
<path style="fill:#3737fb; stroke:none;" d="M210 205L211 206L210 205z"/>
<path style="fill:#4343fa; stroke:none;" d="M244 205L245 206L244 205z"/>
<path style="fill:#6868f3; stroke:none;" d="M84 206L85 207L84 206z"/>
<path style="fill:#b3b3f2; stroke:none;" d="M119 206L120 207L119 206z"/>
<path style="fill:#c6c6f8; stroke:none;" d="M143 206L144 207L143 206z"/>
<path style="fill:#cacafb; stroke:none;" d="M209 206L210 207L209 206z"/>
<path style="fill:#b9b9f2; stroke:none;" d="M233 206L234 207L233 206z"/>
<path style="fill:#6868f5; stroke:none;" d="M268 206L269 207L268 206z"/>
<path style="fill:#7f7ff7; stroke:none;" d="M107 207L108 208L107 207z"/>
<path style="fill:#7d7df7; stroke:none;" d="M245 207L246 208L245 207z"/>
<path style="fill:#3434f7; stroke:none;" d="M83 208L84 209L83 208z"/>
<path style="fill:#9797f0; stroke:none;" d="M144 208L145 209L144 208z"/>
<path style="fill:#9797f2; stroke:none;" d="M208 208L209 209L208 208z"/>
<path style="fill:#3737f9; stroke:none;" d="M269 208L270 209L269 208z"/>
<path style="fill:#c8c8f9; stroke:none;" d="M82 209L83 210L82 209z"/>
<path style="fill:#b8b8f4; stroke:none;" d="M106 209L107 210L106 209z"/>
<path style="fill:#5353f9; stroke:none;" d="M121 209L122 210L121 209z"/>
<path style="fill:#5050f7; stroke:none;" d="M231 209L232 210L231 209z"/>
<path style="fill:#b4b4f4; stroke:none;" d="M246 209L247 210L246 209z"/>
<path style="fill:#c4c4f6; stroke:none;" d="M270 209L271 210L270 209z"/>
<path style="fill:#5a5af7; stroke:none;" d="M145 210L146 211L145 210z"/>
<path style="fill:#5757f2; stroke:none;" d="M207 210L208 211L207 210z"/>
<path style="fill:#9696f8; stroke:none;" d="M81 211L82 212L81 211z"/>
<path style="fill:#8b8bf1; stroke:none;" d="M122 211L123 212L122 211z"/>
<path style="fill:#8b8bf4; stroke:none;" d="M230 211L231 212L230 211z"/>
<path style="fill:#9595f9; stroke:none;" d="M271 211L272 212L271 211z"/>
<path style="fill:#5252f7; stroke:none;" d="M104 212L105 213L104 212z"/>
<path style="fill:#5252f9; stroke:none;" d="M248 212L249 213L248 212z"/>
<path style="fill:#5555f4; stroke:none;" d="M80 213L81 214L80 213z"/>
<path style="fill:#c2c2f1; stroke:none;" d="M123 213L124 214L123 213z"/>
<path style="fill:#babaea; stroke:none;" d="M147 213L148 214L147 213z"/>
<path style="fill:#bebeee; stroke:none;" d="M205 213L206 214L205 213z"/>
<path style="fill:#c4c4f4; stroke:none;" d="M229 213L230 214L229 213z"/>
<path style="fill:#5555f6; stroke:none;" d="M272 213L273 214L272 213z"/>
<path style="fill:#8c8cf6; stroke:none;" d="M103 214L104 215L103 214z"/>
<path style="fill:#8b8bf4; stroke:none;" d="M249 214L250 215L249 214z"/>
<path style="fill:#8787f0; stroke:none;" d="M148 215L149 216L148 215z"/>
<path style="fill:#8686f2; stroke:none;" d="M204 215L205 216L204 215z"/>
<path style="fill:#bdbdf8; stroke:none;" d="M78 216L79 217L78 216z"/>
<path style="fill:#c7c7f4; stroke:none;" d="M102 216L103 217L102 216z"/>
<path style="fill:#6161f6; stroke:none;" d="M125 216L126 217L125 216z"/>
<path style="fill:#6262f4; stroke:none;" d="M227 216L228 217L227 216z"/>
<path style="fill:#c2c2f1; stroke:none;" d="M250 216L251 217L250 216z"/>
<path style="fill:#b8b8f6; stroke:none;" d="M274 216L275 217L274 216z"/>
<path style="fill:#4e4ef9; stroke:none;" d="M149 217L150 218L149 217z"/>
<path style="fill:#4b4bf5; stroke:none;" d="M203 217L204 218L203 217z"/>
<path style="fill:#8282ef; stroke:none;" d="M77 218L78 219L77 218z"/>
<path style="fill:#9e9eef; stroke:none;" d="M126 218L127 219L126 218z"/>
<path style="fill:#9e9ef0; stroke:none;" d="M226 218L227 219L226 218z"/>
<path style="fill:#8383ec; stroke:none;" d="M275 218L276 219L275 218z"/>
<path style="fill:#7c7cfa; stroke:none;" d="M100 219L101 220L100 219z"/>
<path style="fill:#7979fc; stroke:none;" d="M252 219L253 220L252 219z"/>
<path style="fill:#4848f4; stroke:none;" d="M76 220L77 221L76 220z"/>
<path style="fill:#4949f9; stroke:none;" d="M276 220L277 221L276 220z"/>
<path style="fill:#acacf8; stroke:none;" d="M74 223L75 224L74 223z"/>
<path style="fill:#adadf6; stroke:none;" d="M278 223L279 224L278 223z"/>
<path style="fill:#7171ef; stroke:none;" d="M73 225L74 226L73 225z"/>
<path style="fill:#7272ed; stroke:none;" d="M279 225L280 226L279 225z"/>
<path style="fill:#3e3ef6; stroke:none;" d="M72 227L73 228L72 227z"/>
<path style="fill:#4141f9; stroke:none;" d="M280 227L281 228L280 227z"/>
<path style="fill:#a0a0f8; stroke:none;" d="M70 230L71 231L70 230z"/>
<path style="fill:#a1a1f4; stroke:none;" d="M282 230L283 231L282 230z"/>
<path style="fill:#6363ef; stroke:none;" d="M69 232L70 233L69 232z"/>
<path style="fill:#6464f3; stroke:none;" d="M283 232L284 233L283 232z"/>
<path style="fill:#3737fa; stroke:none;" d="M284 234L285 235L284 234z"/>
<path style="fill:#c6c6f4; stroke:none;" d="M67 235L68 236L67 235z"/>
<path style="fill:#c2c2f2; stroke:none;" d="M285 235L286 236L285 235z"/>
<path style="fill:#9393f7; stroke:none;" d="M66 237L67 238L66 237z"/>
<path style="fill:#9393f5; stroke:none;" d="M286 237L287 238L286 237z"/>
<path style="fill:#7d7dd7; stroke:none;" d="M65 239C68.5077 243.014 78.9402 241 84 241L139 241C133.049 238.503 124.42 240 118 240L85 240C78.3415 240 71.5129 240.551 65 239M287 239C279.283 241.281 270.018 240 262 240L214 240C218.222 242.433 226.059 241 231 241L270 241C274.332 241 278.668 241.051 283 241C284.998 240.977 287.953 241.309 287 239z"/>
<path style="fill:#a7a7f6; stroke:none;" d="M163.333 240.667C163.278 240.722 163.222 241.778 163.667 241.333C163.722 241.278 163.778 240.222 163.333 240.667z"/>
<path style="fill:#7d7dd7; stroke:none;" d="M164 240C171.721 243.24 181.737 240.033 190 242C187.897 239.593 185.106 240.006 182 240L164 240z"/>
<path style="fill:#ffffff; stroke:none;" d="M164 241C166.469 248.802 171.742 256.044 176 263C181.574 257.596 186.661 248.392 189 241L164 241z"/>
<path style="fill:#6363f4; stroke:none;" d="M140 242L141 243L140 242z"/>
<path style="fill:#6464f2; stroke:none;" d="M212 242L213 243L212 242z"/>
<path style="fill:#4d4dfa; stroke:none;" d="M164 243L165 244L164 243z"/>
<path style="fill:#4949f8; stroke:none;" d="M188 243L189 244L188 243z"/>
<path style="fill:#9d9dee; stroke:none;" d="M141 244L142 245L141 244z"/>
<path style="fill:#9d9deb; stroke:none;" d="M211 244L212 245L211 244z"/>
<path style="fill:#b2b2f3; stroke:none;" d="M166 246L167 247L166 246z"/>
<path style="fill:#b1b1f4; stroke:none;" d="M186 246L187 247L186 246z"/>
<path style="fill:#3e3ef9; stroke:none;" d="M143 247L144 248L143 247z"/>
<path style="fill:#3a3af7; stroke:none;" d="M209 247L210 248L209 247z"/>
<path style="fill:#7373f8; stroke:none;" d="M167 248L168 249L167 248z"/>
<path style="fill:#7171f4; stroke:none;" d="M185 248L186 249L185 248z"/>
<path style="fill:#7070f3; stroke:none;" d="M144 249L145 250L144 249z"/>
<path style="fill:#7070f2; stroke:none;" d="M208 249L209 250L208 249z"/>
<path style="fill:#4242fb; stroke:none;" d="M168 250L169 251L168 250z"/>
<path style="fill:#3c3cfb; stroke:none;" d="M184 250L185 251L184 250z"/>
<path style="fill:#adadf9; stroke:none;" d="M145 251L146 252L145 251z"/>
<path style="fill:#afaffb; stroke:none;" d="M207 251L208 252L207 251z"/>
<path style="fill:#a0a0f2; stroke:none;" d="M170 253L171 254L170 253z"/>
<path style="fill:#9f9ff6; stroke:none;" d="M182 253L183 254L182 253z"/>
<path style="fill:#4b4bf6; stroke:none;" d="M147 254L148 255L147 254z"/>
<path style="fill:#4949f3; stroke:none;" d="M205 254L206 255L205 254z"/>
<path style="fill:#6565fb; stroke:none;" d="M171 255L172 256L171 255z"/>
<path style="fill:#6262f7; stroke:none;" d="M181 255L182 256L181 255z"/>
<path style="fill:#8282f4; stroke:none;" d="M148 256L149 257L148 256z"/>
<path style="fill:#8282f3; stroke:none;" d="M204 256L205 257L204 256z"/>
<path style="fill:#3434fb; stroke:none;" d="M172 257L173 258L172 257z"/>
<path style="fill:#babaf7; stroke:none;" d="M149 258L150 259L149 258z"/>
<path style="fill:#c4c4f1; stroke:none;" d="M173 258L174 259L173 258z"/>
<path style="fill:#c6c6f4; stroke:none;" d="M179 258L180 259L179 258z"/>
<path style="fill:#bbbbfe; stroke:none;" d="M203 258L204 259L203 258z"/>
<path style="fill:#9090f6; stroke:none;" d="M174 260L175 261L174 260z"/>
<path style="fill:#8f8ff7; stroke:none;" d="M178 260L179 261L178 260z"/>
<path style="fill:#5858f9; stroke:none;" d="M151 261L152 262L151 261z"/>
<path style="fill:#5b5bf8; stroke:none;" d="M201 261L202 262L201 261z"/>
<path style="fill:#5757fc; stroke:none;" d="M175 262L176 263L175 262z"/>
<path style="fill:#5656fc; stroke:none;" d="M177 262L178 263L177 262z"/>
<path style="fill:#9191f2; stroke:none;" d="M152 263L153 264L152 263z"/>
<path style="fill:#bdbdfb; stroke:none;" d="M176 263L177 264L176 263z"/>
<path style="fill:#9191f3; stroke:none;" d="M200 263L201 264L200 263z"/>
<path style="fill:#c3c3f7; stroke:none;" d="M153 265L154 266L153 265z"/>
<path style="fill:#c5c5fd; stroke:none;" d="M199 265L200 266L199 265z"/>
<path style="fill:#3535f7; stroke:none;" d="M154 266L155 267L154 266z"/>
<path style="fill:#6565f8; stroke:none;" d="M155 268L156 269L155 268z"/>
<path style="fill:#6666f5; stroke:none;" d="M197 268L198 269L197 268z"/>
<path style="fill:#a0a0f7; stroke:none;" d="M156 270L157 271L156 270z"/>
<path style="fill:#a1a1fa; stroke:none;" d="M196 270L197 271L196 270z"/>
<path style="fill:#4141f7; stroke:none;" d="M158 273L159 274L158 273z"/>
<path style="fill:#3f3ff3; stroke:none;" d="M194 273L195 274L194 273z"/>
<path style="fill:#7171f7; stroke:none;" d="M159 275L160 276L159 275z"/>
<path style="fill:#7171f5; stroke:none;" d="M193 275L194 276L193 275z"/>
<path style="fill:#b0b0f6; stroke:none;" d="M160 277L161 278L160 277z"/>
<path style="fill:#b0b0f9; stroke:none;" d="M192 277L193 278L192 277z"/>
<path style="fill:#4d4dfe; stroke:none;" d="M162 280L163 281L162 280z"/>
<path style="fill:#4b4bfc; stroke:none;" d="M190 280L191 281L190 280z"/>
<path style="fill:#8282f6; stroke:none;" d="M163 282L164 283L163 282z"/>
<path style="fill:#8282f5; stroke:none;" d="M189 282L190 283L189 282z"/>
<path style="fill:#b9b9f4; stroke:none;" d="M164 284L165 285L164 284z"/>
<path style="fill:#bebef8; stroke:none;" d="M188 284L189 285L188 284z"/>
<path style="fill:#5757fd; stroke:none;" d="M166 287L167 288L166 287z"/>
<path style="fill:#5858fb; stroke:none;" d="M186 287L187 288L186 287z"/>
<path style="fill:#9595f7; stroke:none;" d="M167 289L168 290L167 289z"/>
<path style="fill:#9696f7; stroke:none;" d="M185 289L186 290L185 289z"/>
<path style="fill:#c4c4f0; stroke:none;" d="M168 291L169 292L168 291z"/>
<path style="fill:#c7c7f5; stroke:none;" d="M184 291L185 292L184 291z"/>
<path style="fill:#3737fb; stroke:none;" d="M169 292L170 293L169 292z"/>
<path style="fill:#6868fb; stroke:none;" d="M170 294L171 295L170 294z"/>
<path style="fill:#6868f9; stroke:none;" d="M182 294L183 295L182 294z"/>
<path style="fill:#a5a5f3; stroke:none;" d="M171 296L172 297L171 296z"/>
<path style="fill:#a5a5f7; stroke:none;" d="M181 296L182 297L181 296z"/>
<path style="fill:#4343f8; stroke:none;" d="M173 299L174 300L173 299z"/>
<path style="fill:#4040f7; stroke:none;" d="M179 299L180 300L179 299z"/>
<path style="fill:#7878fb; stroke:none;" d="M174 301L175 302L174 301z"/>
<path style="fill:#7878f7; stroke:none;" d="M178 301L179 302L178 301z"/>
<path style="fill:#b2b2f3; stroke:none;" d="M175 303L176 304L175 303z"/>
<path style="fill:#b2b2f6; stroke:none;" d="M177 303L178 304L177 303z"/>
<path style="fill:#6060ff; stroke:none;" d="M176 304L177 305L176 304z"/>
</svg>
